<?xml version="1.0" encoding="UTF-8" ?>
<!DOCTYPE svg PUBLIC "-//W3C//DTD SVG 1.1//EN" "http://www.w3.org/Graphics/SVG/1.1/DTD/svg11.dtd">
<svg width="60pt" height="22pt" viewBox="0 0 60 22" version="1.1" xmlns="http://www.w3.org/2000/svg">
<g id="#354954">
<path fill="#354954" opacity="1.00" d=" M 12.27 0.00 L 14.11 0.00 C 14.21 3.17 14.19 6.35 14.21 9.52 C 15.98 9.53 17.76 9.53 19.53 9.51 C 19.74 7.53 19.07 5.07 21.11 3.77 C 21.91 8.55 22.04 13.55 21.02 18.31 C 19.04 16.62 19.68 13.96 19.58 11.70 C 17.80 11.70 16.02 11.70 14.24 11.70 C 13.74 13.61 15.28 16.94 12.91 17.76 L 12.35 16.88 C 11.92 11.27 12.23 5.62 12.27 0.00 Z" />
<path fill="#354954" opacity="1.00" d=" M 2.97 4.99 C 5.83 3.72 8.85 5.16 10.89 7.22 C 10.41 7.61 9.93 8.00 9.44 8.40 C 7.39 6.09 3.98 5.46 1.76 7.96 C 4.43 10.40 9.60 9.36 10.99 13.11 C 11.03 18.59 2.65 18.81 0.00 15.01 L 0.00 13.23 C 2.95 13.99 5.75 17.43 8.83 14.75 C 8.13 11.21 2.76 12.43 0.61 9.98 C -0.36 7.97 0.78 5.48 2.97 4.99 Z" />
<path fill="#354954" opacity="1.00" d=" M 23.36 13.97 C 21.36 9.95 24.23 4.27 28.98 4.45 C 33.02 4.06 35.78 7.81 35.84 11.54 C 32.16 11.71 28.48 11.60 24.80 11.67 C 25.34 14.63 29.07 16.89 31.59 14.67 C 32.46 13.90 34.82 11.84 35.15 14.16 C 32.98 18.72 25.37 18.60 23.36 13.97 M 24.79 9.40 C 27.77 9.54 30.76 9.56 33.73 9.33 C 31.85 5.51 26.57 5.62 24.79 9.40 Z" />
<path fill="#354954" opacity="1.00" d=" M 37.18 13.82 C 35.31 9.74 38.30 4.19 43.05 4.47 C 47.03 4.18 49.70 7.91 49.74 11.59 C 46.06 11.68 42.39 11.61 38.72 11.67 C 39.28 14.38 42.24 16.60 44.93 15.12 C 46.24 14.52 47.99 11.63 49.12 14.02 C 47.05 18.82 39.08 18.66 37.18 13.82 M 38.74 9.44 C 41.63 9.52 44.52 9.51 47.41 9.45 C 45.98 5.42 40.33 5.69 38.74 9.44 Z" />
<path fill="#354954" opacity="1.00" d=" M 50.63 4.42 C 53.91 4.48 58.39 3.53 60.00 7.32 L 60.00 9.36 C 59.44 11.21 57.74 12.05 56.14 12.80 C 57.45 13.88 58.77 14.97 60.00 16.15 L 60.00 17.82 C 57.07 16.88 55.01 14.49 52.73 12.56 C 52.72 15.71 52.72 18.85 52.56 22.00 L 50.79 22.00 C 50.42 16.15 50.69 10.28 50.63 4.42 M 52.53 6.09 C 52.51 7.72 52.50 9.36 52.47 11.00 C 54.62 11.09 58.52 11.39 58.12 8.11 C 57.51 5.54 54.47 6.24 52.53 6.09 Z" />
</g>
</svg>
